<svg xmlns="http://www.w3.org/2000/svg" width="108" height="96" viewBox="0 0 108 96" version="1.1">
	<path d="M 39.667 21.667 C 37.712 23.621, 40.605 24, 57.500 24 C 74.240 24, 78.927 23.337, 74.418 21.607 C 72.260 20.779, 40.500 20.833, 39.667 21.667 M 31.667 29.667 C 31.300 30.033, 31 31.608, 31 33.167 C 31 36, 31 36, 57.500 36 C 84 36, 84 36, 84 33.107 C 84 31.391, 83.356 29.967, 82.418 29.607 C 80.256 28.777, 32.500 28.834, 31.667 29.667 M 90 37.845 C 90 41, 90 41, 57 41 C 24 41, 24 41, 24 38.345 C 24 35.753, 23.952 35.733, 22 37.500 C 20.814 38.574, 20 40.580, 20 42.431 C 20 47.363, 26.007 80.391, 27.106 81.500 C 28.166 82.570, 80.807 83.516, 84.715 82.535 C 85.940 82.228, 87.387 81.145, 87.931 80.128 C 89.374 77.434, 95.168 42.105, 94.508 40.027 C 94.201 39.057, 93.060 37.460, 91.974 36.477 C 90.048 34.734, 90 34.767, 90 37.845 M 41 55.566 C 41 63.918, 41.153 64, 56.835 64 C 66.208 64, 70.983 63.617, 71.800 62.800 C 72.460 62.140, 73 59.215, 73 56.300 C 73 51.667, 72.748 51, 71 51 C 69.333 51, 69 51.667, 69 55 C 69 59, 69 59, 57.500 59 C 46 59, 46 59, 46 55 C 46 51.400, 45.750 51, 43.500 51 C 41.198 51, 41 51.362, 41 55.566 " stroke="none" fill="black" fill-rule="evenodd"/>
</svg>