<?xml version="1.0" encoding="UTF-8"?>
<svg width="247px" height="51px" viewBox="0 0 247 51" version="1.1" xmlns="http://www.w3.org/2000/svg" xmlns:xlink="http://www.w3.org/1999/xlink">
    <!-- Generator: Sketch 64 (93537) - https://sketch.com -->
    <title>SCORM Copy</title>
    <desc>Created with Sketch.</desc>
    <g id="Page-1" stroke="none" stroke-width="1" fill="none" fill-rule="evenodd">
        <g id="SCORM-Copy" transform="translate(0.000000, -6.000000)" fill="#000000" fill-rule="nonzero">
            <g id="M" transform="translate(182.000000, 7.000000)">
                <path d="M14.9780612,0 C29.9561223,0 30.6603774,10.288592 30.6603774,21.0193289 C30.6603774,30.0128859 30.6603774,39.006443 30.6603774,48 L0,48 C0,38.8590613 0,29.7181226 0,20.5771839 C0,10.288592 0,0 14.9780612,0 Z M15.0484867,3.07692308 C3.06603774,3.07692308 3.06603774,11.0301104 3.06603774,18.9832978 C3.06603774,26.0493375 3.06603774,34.7486338 3.06603774,45.0811872 L27.5943396,45.0811872 C27.5943396,34.8625614 27.5943396,26.2771925 27.5943396,19.3250804 C27.5943396,11.0301104 27.0309356,3.07692308 15.0484867,3.07692308 Z" id="Combined-Shape"></path>
                <path d="M49.3176839,0 C64.295745,0 65,10.288592 65,21.0193289 C65,30.0128859 65,39.006443 65,48 L34.3396226,48 C34.3396226,38.8590613 34.3396226,29.7181226 34.3396226,20.5771839 C34.3396226,10.288592 34.3396226,0 49.3176839,0 Z M49.3881093,3.07692308 C37.4056604,3.07692308 37.4056604,11.0301104 37.4056604,18.9832978 C37.4056604,26.0493375 37.4056604,34.7486338 37.4056604,45.0811872 L61.9339623,45.0811872 C61.9339623,34.8625614 61.9339623,26.2771925 61.9339623,19.3250804 C61.9339623,11.0301104 61.3705582,3.07692308 49.3881093,3.07692308 Z" id="Combined-Shape-Copy"></path>
            </g>
            <g id="R" transform="translate(134.000000, 6.000000)">
                <path d="M2.027375,1.66829268 L20.6094,1.66829268 L22.110025,1.66829268 L22.110025,3.17682927 L22.110025,47.3256098 L22.110025,48.8329268 L20.6094,48.8329268 L2.027375,48.8329268 L0.52675,48.8329268 L0.52675,47.3256098 L0.52675,3.17682927 L0.52675,1.66829268 L2.027375,1.66829268 L2.027375,1.66829268 Z M19.108775,4.68658537 L3.528,4.68658537 L3.528,45.8182927 L19.108775,45.8182927 L19.108775,4.68658537 L19.108775,4.68658537 Z" id="Shape"></path>
                <path d="M36.85045,0.0634146341 C40.1457,0.0634146341 43.1396,1.42073171 45.309075,3.60853659 C47.472425,5.7902439 48.812575,8.79634146 48.812575,12.1073171 C48.812575,15.4170732 47.4712,18.4243902 45.309075,20.6060976 C43.1396,22.7926829 40.1457,24.15 36.85045,24.15 C34.5793,24.15 32.42085,23.497561 30.67645,21.9463415 C29.183175,20.6195122 28.031675,18.654878 27.43265,15.9036585 C27.296675,15.2792683 26.85445,14.8487805 26.12925,14.6439024 C25.101475,14.354878 23.61065,14.4268293 21.676375,14.904878 L20.083875,12.5707317 C22.28765,9.47560976 25.265625,5.92439024 28.546175,3.41707317 C31.167675,1.41463415 34.0011,0.0634146341 36.85045,0.0634146341 L36.85045,0.0634146341 Z M43.155525,5.71829268 C41.540975,4.0902439 39.31025,3.0804878 36.851675,3.0804878 C34.74345,3.0804878 32.515175,4.18170732 30.38245,5.81097561 C28.3367,7.37439024 26.39875,9.41097561 24.71805,11.4682927 C25.549825,11.4682927 26.2934,11.5621951 26.946325,11.745122 C28.8365,12.2780488 30.0027,13.4817073 30.39225,15.2682927 C30.84305,17.3378049 31.660125,18.7719512 32.701375,19.6963415 C33.840625,20.7060976 35.2947,21.1329268 36.851675,21.1329268 C39.311475,21.1329268 41.540975,20.1231707 43.155525,18.4963415 C44.777425,16.8597561 45.78315,14.6 45.78315,12.1073171 C45.781925,9.61463415 44.7762,7.35365854 43.155525,5.71829268 L43.155525,5.71829268 Z" id="Shape"></path>
            </g>
            <path d="M122.357922,49.9729453 L101.790958,9.4085465 L101.003126,7.85619983 L102.654756,7.29505163 C103.895929,6.87357788 105.188563,6.54889606 106.521629,6.32835746 C107.832642,6.11271973 109.162032,6 110.5,6 C117.24865,6 123.37365,8.75060636 127.811487,13.188333 C132.249325,17.6260596 135,23.7521316 135,30.4993874 C135,34.5511715 134.006326,38.3799665 132.25055,41.7566574 C130.431061,45.2546446 127.785757,48.2662216 124.578066,50.5267422 L123.150655,51.5338684 L122.357922,49.9729453 L122.357922,49.9729453 Z M105.311087,9.66584152 L124.232547,46.9846473 C126.417158,45.1590778 128.237873,42.9095842 129.563588,40.3611382 C131.100045,37.4083715 131.969969,34.0537344 131.969969,30.5018378 C131.969969,24.5901783 129.557461,19.2225139 125.668534,15.3336834 C121.779606,11.4448528 116.411807,9.03240567 110.5,9.03240567 C109.295584,9.03240567 108.129151,9.1279724 107.006826,9.31297977 C106.435862,9.4085465 105.869799,9.52494186 105.311087,9.66584152 L105.311087,9.66584152 Z M98.3994799,11.2022604 L118.92601,51.685795 L119.723645,53.2577451 L118.043834,53.8029655 C116.852896,54.1901333 115.609272,54.4903108 114.319089,54.6961468 C113.05096,54.8946316 111.774255,55 110.5,55 C103.752576,55 97.6275755,52.2481684 93.1897379,47.811667 C88.7519004,43.3727152 86,37.2490936 86,30.5006126 C86,26.5039632 86.9654931,22.7254019 88.6759352,19.3866927 C90.4513153,15.9193359 93.0292308,12.9261371 96.1609572,10.65704 L97.5957191,9.61683295 L98.3994799,11.2022604 L98.3994799,11.2022604 Z M115.394854,51.4088966 L96.5371074,14.2162879 C94.419884,16.034506 92.6579816,18.257045 91.3763753,20.7613832 C89.8779006,23.6871953 89.0324815,26.9977246 89.0324815,30.5018378 C89.0324815,36.4122721 91.4437638,41.7799365 95.3339168,45.668767 C99.2228446,49.5575976 104.590643,51.9700448 110.501225,51.9700448 C111.666433,51.9700448 112.787533,51.8818293 113.858397,51.7115245 C114.373,51.6318856 114.886377,51.5289676 115.394854,51.4088966 L115.394854,51.4088966 Z" id="Shape"></path>
            <path d="M56.2680746,48.5575606 L75.2452935,11.0651675 C74.6849353,10.9248387 74.117204,10.8066671 73.5433284,10.7118837 C72.4189254,10.5260097 71.2490547,10.4299953 70.0398607,10.4299953 C64.1118607,10.4299953 58.7282438,12.8525125 54.8278557,16.760791 C50.9262388,20.6678386 48.5078507,26.0606475 48.5078507,32 C48.5078507,35.5673043 49.3791095,38.938887 50.9213234,41.9054858 C52.2521741,44.463408 54.0770249,46.7259011 56.2680746,48.5575606 L56.2680746,48.5575606 Z M78.775796,10.809129 L58.1482239,51.562319 L57.3531542,53.1317851 L55.9215373,52.119941 C52.7031642,49.8476002 50.0525224,46.8231466 48.2264428,43.3087733 C46.4642637,39.9162643 45.4676617,36.0695335 45.4676617,31.998769 C45.4676617,25.2186751 48.2276716,19.0651367 52.6785871,14.6066218 C57.1295025,10.1481068 63.2725522,7.38461536 70.0398607,7.38461536 C71.3817711,7.38461536 72.7163085,7.49663216 74.0311841,7.71451101 C75.3681791,7.93485175 76.6646219,8.26228548 77.9094527,8.6857336 L79.5659503,9.24951048 L78.775796,10.809129 L78.775796,10.809129 Z M74.9075714,33.6904978 C72.7351802,37.9826087 69.4765934,44.4207751 65.1318109,53.0049969 C65.6430149,53.1256304 66.1554478,53.2290305 66.6740249,53.3078115 C67.7480448,53.4789141 68.8724478,53.5675427 70.0398607,53.5675427 C75.9690896,53.5675427 81.3527065,51.1437946 85.2530945,47.2367471 C86.9594038,45.5275243 88.3820859,43.5339544 89.4427424,41.3347754 C89.4427424,41.3347754 74.9075714,33.6904978 74.9075714,33.6904978 Z M73.397283,29.9576083 C86.4907559,37.0993808 93.0374923,40.6702669 93.0374923,40.6702669 C91.7905717,43.9722538 89.8535533,46.9391099 87.4048209,49.3933782 C82.9539055,53.8506621 76.8096269,56.6153846 70.0423184,56.6153846 C68.7643085,56.6153846 67.4850697,56.5095226 66.213204,56.310108 C64.9192189,56.1033078 63.6707015,55.8029551 62.4762537,55.4127426 L60.7914925,54.8649682 L61.5902488,53.2844234 L73.397283,29.9576083 Z" id="Shape" transform="translate(69.252577, 32.000000) rotate(19.000000) translate(-69.252577, -32.000000) "></path>
            <g id="S" transform="translate(0.000000, 6.000000)">
                <path d="M42.3027692,18.043025 L26.3581538,18.043025 L24.8356923,18.043025 L24.8356923,16.5277 L24.8356923,2.167025 L24.8356923,0.863625 L26.1390769,0.66885 C26.5612308,0.606375 26.9415385,0.562275 27.28,0.53655 C27.6196923,0.510825 28,0.498575 28.4196923,0.498575 C32.6683077,0.498575 36.5255385,2.22215 39.3181538,5.0029 C42.112,7.78365 43.8436923,11.621575 43.8436923,15.850275 C43.8436923,15.9887 43.8424615,16.11365 43.84,16.22635 C43.8350769,16.38805 43.8313846,16.513 43.8264615,16.59875 L43.7550769,18.043025 L42.3027692,18.043025 L42.3027692,18.043025 Z M27.8806154,15.012375 L40.768,15.012375 C40.56,11.952325 39.2196923,9.1924 37.1630769,7.145425 C34.9218462,4.913475 31.8264615,3.529225 28.4184615,3.529225 C28.2523077,3.529225 28.0726154,3.534125 27.8806154,3.543925 L27.8806154,15.012375 L27.8806154,15.012375 Z" id="Shape"></path>
                <path d="M1.88553846,28.864675 L19.4436923,28.864675 L20.9661538,28.864675 L20.9661538,30.378775 L20.9661538,46.193525 L20.9661538,47.496925 L19.6627692,47.690475 C19.2036923,47.7603 18.7901538,47.808075 18.4246154,47.8338 C18.0492308,47.861975 17.632,47.876675 17.1741538,47.876675 C12.5378462,47.876675 8.32984615,45.99385 5.28123077,42.959525 C2.23261538,39.9252 0.343384615,35.73815 0.343384615,31.123575 C0.343384615,30.9778 0.344615385,30.841825 0.347076923,30.719325 C0.352,30.54415 0.356923077,30.410625 0.361846154,30.307725 L0.433230769,28.862225 L1.88553846,28.862225 L1.88553846,28.864675 Z M17.9212308,31.895325 L3.41169231,31.895325 C3.60615385,35.366975 5.11015385,38.5042 7.43753846,40.81945 C9.93476923,43.304975 13.3809231,44.846025 17.1766154,44.846025 C17.4067692,44.846025 17.6553846,44.838675 17.9212308,44.821525 L17.9212308,31.895325 L17.9212308,31.895325 Z" id="Shape"></path>
                <path d="M24.2966154,46.36135 L24.2966154,23.241925 L24.2966154,21.727825 L25.8190769,21.727825 L37.1261538,21.727825 L37.1778462,21.727825 L37.3169231,21.744975 C41.6196923,22.295 44.6584615,24.86015 46.3507692,28.198275 C47.3341538,30.136225 47.856,32.32775 47.9003077,34.521725 C47.9446154,36.71815 47.5126154,38.93785 46.5846154,40.92725 C44.9833846,44.358475 41.9433846,47.085325 37.3772308,47.85585 L37.2369231,47.88035 L37.1273846,47.88035 L25.8203077,47.88035 L24.2978462,47.88035 L24.2978462,46.36135 L24.2966154,46.36135 Z M27.3427692,24.756025 L27.3427692,44.846025 L37.0116923,44.846025 C40.3864615,44.233525 42.6363077,42.202475 43.824,39.656925 C44.5513846,38.09995 44.8898462,36.3384 44.8541538,34.5793 C44.8196923,32.81775 44.4098462,31.077025 43.6393846,29.5568 C42.3901538,27.09455 40.1772308,25.197025 37.0658462,24.7548 L27.3427692,24.7548 L27.3427692,24.756025 Z" id="Shape"></path>
                <path d="M21.7070769,2.009 L21.7070769,20.5604 L21.7070769,22.07695 L20.1846154,22.07695 L11.1126154,22.07695 L11.0609231,22.07695 L10.9218462,22.05735 C7.35876923,21.602875 4.84307692,19.47995 3.44369231,16.7188 C2.63384615,15.122625 2.20307692,13.319425 2.16738462,11.516225 C2.13169231,9.710575 2.48861538,7.885325 3.25169231,6.246275 C4.57476923,3.4104 7.08923077,1.155175 10.864,0.518175 L11.0043077,0.493675 L11.1138462,0.493675 L20.1858462,0.493675 L21.7083077,0.493675 L21.7083077,2.009 L21.7070769,2.009 Z M18.6609231,19.045075 L18.6609231,3.524325 L11.2283077,3.524325 C8.64246154,4.0033 6.92061538,5.562725 6.01107692,7.512925 C5.44738462,8.722 5.184,10.0891 5.21230769,11.4562 C5.23938462,12.826975 5.55815385,14.179375 6.15507692,15.357825 C7.11138462,17.2431 8.8,18.699625 11.1729231,19.0463 L18.6609231,19.0463 L18.6609231,19.045075 Z" id="Shape"></path>
            </g>
        </g>
    </g>
</svg>