<svg xmlns="http://www.w3.org/2000/svg" width="108" height="96"><path d="M39.667 21.667C37.712 23.621 40.605 24 57.5 24c16.74 0 21.427-.663 16.918-2.393-2.158-.828-33.918-.774-34.751.06m-8 8c-.367.366-.667 1.941-.667 3.5C31 36 31 36 57.5 36S84 36 84 33.107c0-1.716-.644-3.14-1.582-3.5-2.162-.83-49.918-.773-50.751.06M90 37.845C90 41 90 41 57 41s-33 0-33-2.655c0-2.592-.048-2.612-2-.845-1.186 1.074-2 3.08-2 4.931 0 4.932 6.007 37.96 7.106 39.069 1.06 1.07 53.701 2.016 57.609 1.035 1.225-.307 2.672-1.39 3.216-2.407 1.443-2.694 7.237-38.023 6.577-40.101-.307-.97-1.448-2.567-2.534-3.55C90.048 34.734 90 34.767 90 37.845M41 55.566C41 63.918 41.153 64 56.835 64c9.373 0 14.148-.383 14.965-1.2.66-.66 1.2-3.585 1.2-6.5 0-4.633-.252-5.3-2-5.3-1.667 0-2 .667-2 4 0 4 0 4-11.5 4S46 59 46 55c0-3.6-.25-4-2.5-4-2.302 0-2.5.362-2.5 4.566" fill-rule="evenodd"/></svg>